<?xml version="1.0" encoding="utf-8"?>
<!-- Svg Vector Icons : http://www.onlinewebfonts.com/icon -->
<!DOCTYPE svg PUBLIC "-//W3C//DTD SVG 1.1//EN" "http://www.w3.org/Graphics/SVG/1.1/DTD/svg11.dtd">
<svg version="1.1" xmlns="http://www.w3.org/2000/svg" xmlns:xlink="http://www.w3.org/1999/xlink" x="0px" y="0px" viewBox="0 0 1000 1000" enable-background="new 0 0 1000 1000" xml:space="preserve">
<metadata> Svg Vector Icons : http://www.onlinewebfonts.com/icon </metadata>
<g><g transform="matrix(1 0 0 -1 0 1920)"><path d="M354.5,1627.3c6.8,26.4,19.9,49.2,39.2,68.4c19.3,19.2,42.2,32.4,68.6,39.4v137.2c0,5.3,1.8,9.7,5.5,13.4c3.6,3.6,8.1,5.5,13.4,5.5h94.2v-75.4H500v-75.4c34.7,0,65.5-10.6,92.3-31.9c26.9-21.2,44.6-48.3,53.1-81.2H354.5z M66.5,1061.9c-5.3,0-9.7,1.8-13.4,5.5c-3.6,3.6-5.5,8.1-5.5,13.4V1420c0,5.3,1.8,9.7,5.5,13.4c3.6,3.6,8.1,5.5,13.4,5.5h169.6v131.9c0,5.3,1.8,9.7,5.5,13.4c3.6,3.6,8.1,5.5,13.4,5.5h490c5.3,0,9.7-1.8,13.4-5.5c3.6-3.6,5.5-8.1,5.5-13.4v-131.9h169.6c5.3,0,9.7-1.8,13.4-5.5c3.6-3.6,5.5-8.1,5.5-13.4v-339.2c0-5.3-1.8-9.7-5.5-13.4c-3.6-3.6-8.1-5.5-13.4-5.5H66.5z M311.5,1212.7h37.7v263.8h-37.7V1212.7z M424.6,1212.7h37.7v263.8h-37.7V1212.7z M537.7,1212.7h37.7v263.8h-37.7V1212.7z M650.8,1212.7h37.7v263.8h-37.7V1212.7z M85.4,1288.1h37.7v75.4H85.4V1288.1z M160.8,1288.1h37.7v75.4h-37.7V1288.1z M801.5,1288.1h37.7v75.4h-37.7V1288.1z M876.9,1288.1h37.7v75.4h-37.7V1288.1z M85.4,1175h37.7v75.4H85.4V1175z M160.8,1175h37.7v75.4h-37.7V1175z M801.5,1175h37.7v75.4h-37.7V1175z M876.9,1175h37.7v75.4h-37.7V1175z M28.8,948.8c-5.3,0-9.7,1.8-13.4,5.5c-3.6,3.6-5.5,8.1-5.5,13.4v37.7c0,5.3,1.8,9.7,5.5,13.4s8.1,5.5,13.4,5.5h942.3c5.3,0,9.7-1.8,13.4-5.5c3.6-3.6,5.5-8.1,5.5-13.4v-37.7c0-5.3-1.8-9.7-5.5-13.4c-3.6-3.6-8.1-5.5-13.4-5.5H28.8z"/></g></g>
</svg>