<?xml version="1.0" encoding="utf-8"?>
<!-- Svg Vector Icons : http://www.onlinewebfonts.com/icon -->
<!DOCTYPE svg PUBLIC "-//W3C//DTD SVG 1.1//EN" "http://www.w3.org/Graphics/SVG/1.1/DTD/svg11.dtd">
<svg version="1.1" xmlns="http://www.w3.org/2000/svg" xmlns:xlink="http://www.w3.org/1999/xlink" x="0px" y="0px" viewBox="0 0 1000 1000" enable-background="new 0 0 1000 1000" xml:space="preserve">
<metadata> Svg Vector Icons : http://www.onlinewebfonts.com/icon </metadata>
<g><g><g><rect x="578.9" y="533.8" width="101.4" height="202.8"/><rect x="578.9" y="432.4" width="101.4" height="16.9"/><polygon points="730.9,415.5 764.7,415.5 764.7,263.4 730.9,263.4 730.9,229.7 578.9,229.7 578.9,263.4 578.9,297.2 730.9,297.2 730.9,331 578.9,331 578.9,347.9 730.9,347.9 730.9,381.7 578.9,381.7 578.9,398.6 730.9,398.6 "/><rect x="578.9" y="483.1" width="101.4" height="16.9"/><path d="M134.8,906.7c4.6-38,40.7-58.4,71.9-58.4c32.9,0,61,20,72.6,48.8c10.4-24.1,16.4-83.3,79.9-97.6v112.4c24,12.2,42.2,34.1,48.5,61.2c1.3,5.4,2.1,11.1,2.4,16.9h50.5v-16.9v-126v-15.2v-15v-12.7h-12h-14.3h-14H393v-7.4v-6.8v-8.6v-10.9h67.6v-16.9H393v-33.8h135.2v16.9H562V533.8V500v-16.9v-33.8v-16.9v-33.8v-16.9v-33.8V331v-33.8V179h-33.8v-33.8h-33.8v-33.8h-16.9V10h-33.8v101.4h-16.9v33.8H393V179h-33.8v604.7c-53.4,10.2-74,47.3-84.8,76.6c-17.5-17.8-41.6-28.2-67.7-28.2c-43,0-89.5,32-89.7,83.6c2.8-1.9,5.8-3.6,8.8-5.1C128.8,909.1,131.8,907.8,134.8,906.7z M393,212.8h135.2v33.8H393V212.8z M393,263.4h135.2v33.8H393V263.4z M393,314.1h135.2v33.8H393V314.1z M393,364.8h135.2v33.8H393V364.8z M393,415.5h135.2v33.8H393V415.5z M393,466.2h135.2V500H393V466.2z M393,516.9h135.2v33.8H393V516.9z M393,567.6h135.2v33.8H393V567.6z M393,618.3h135.2v33.8H393V618.3z M393,669h135.2v33.8H393V669z"/><path d="M730.9,432.4h-33.8v16.9v33.8V500v33.8v202.8h67.6h16.9h33.8h16.9h16.9V821v169h50.7V821V432.4H764.7H730.9z M730.9,466.2h33.8V500h-33.8v-16.9V466.2z M730.9,567.6h33.8v33.8h-33.8V567.6z M815.4,601.4h-33.8v-33.8h33.8V601.4z M730.9,618.3h33.8v33.8h-33.8V618.3z M781.6,618.3h33.8v33.8h-33.8V618.3z M832.3,618.3h33.8v33.8h-33.8V618.3z M832.3,601.4v-33.8h33.8v33.8H832.3z M832.3,550.7v-33.8h33.8v33.8H832.3z M815.4,550.7h-33.8v-33.8h33.8V550.7z M730.9,516.9h33.8v33.8h-33.8v-16.9V516.9z M730.9,702.8V669h33.8v33.8H730.9z M781.6,702.8V669h33.8v33.8H781.6z M832.3,702.8V669h33.8v33.8H832.3z M866.1,500h-33.8v-33.8h33.8V500z M815.4,500h-33.8v-33.8h33.8V500z"/><path d="M393.3,990c-0.3-5.6-1.7-11.3-3.6-16.9c-5.2-15.5-16-30.5-30.5-41c-12.2-8.9-26.9-14.6-42.8-14.6c-31.8,0-59.1,20.7-70.9,48.2c-11.6-28.8-39.7-49.1-72.6-49.1c-13,0-26.8,2.7-38.9,8.5c-2.9,1.4-5.7,3-8.4,4.8c-3,2-5.7,4.3-8.3,6.8c-10.2,9.7-17.1,22.9-17.1,40.8c0,4.8,0.6,12.6,1.4,12.6h19.7h7h7h223.9L393.3,990L393.3,990z"/><polygon points="697.1,753.4 680.2,753.4 578.9,753.4 562,753.4 528.2,753.4 477.5,753.4 477.5,770.3 477.5,804.1 477.5,841.9 477.5,862.7 477.5,885.8 477.5,973.1 477.5,990 495.1,990 503.9,990 511.3,990 511.3,963.2 511.3,837.9 511.3,821 562,821 578.9,821 680.2,821 697.1,821 764.7,821 798.5,821 798.5,990 832.3,990 832.3,821 832.3,753.4 764.7,753.4 "/><polygon points="764.7,990 781.6,990 781.6,837.9 764.7,837.9 697.1,837.9 578.9,837.9 562,837.9 528.2,837.9 528.2,990 562,990 562,905.5 578.9,905.5 646.5,905.5 646.5,990 663.3,990 663.3,905.5 697.1,905.5 747.8,905.5 747.8,990 "/></g></g><g></g><g></g><g></g><g></g><g></g><g></g><g></g><g></g><g></g><g></g><g></g><g></g><g></g><g></g><g></g></g>
</svg>