<?xml version="1.0" encoding="UTF-8" standalone="no"?>
<svg
   xmlns:dc="http://purl.org/dc/elements/1.1/"
   xmlns:cc="http://creativecommons.org/ns#"
   xmlns:rdf="http://www.w3.org/1999/02/22-rdf-syntax-ns#"
   xmlns:svg="http://www.w3.org/2000/svg"
   xmlns="http://www.w3.org/2000/svg"
   style="fill:#000000"
   id="svg6"
   viewBox="0 0 33.94285 41.963184"
   y="0px"
   x="0px"
   version="1.1"
   width="42.428562"
   height="52.453979">
  <metadata
     id="metadata12">
    <rdf:RDF>
      <cc:Work
         rdf:about="">
        <dc:format>image/svg+xml</dc:format>
        <dc:type
           rdf:resource="http://purl.org/dc/dcmitype/StillImage" />
        <dc:title></dc:title>
      </cc:Work>
    </rdf:RDF>
  </metadata>
  <defs
     id="defs10" />
  <g
     style="fill:#c5c4cf;fill-opacity:1"
     id="g4"
     transform="translate(-23.028576,-991.38061)">
    <path
       id="path2"
       overflow="visible"
       display="inline"
       visibility="visible"
       marker="none"
       style="color:#000000;text-indent:0;text-transform:none;direction:ltr;baseline-shift:baseline;display:inline;overflow:visible;visibility:visible;fill:#464646;fill-opacity:1;stroke:none;enable-background:accumulate"
       d="m 23.275809,994.31811 10.75,19.53129 v 17.5313 c 0,1.36 1.6937,2.3972 2.9062,1.7812 l 8,-4.0937 c 0.6536,-0.3322 1.0932,-1.0481 1.0938,-1.7813 v -13.4375 l 10.75,-19.53129 c 0.6406,-1.2075 -0.3832,-2.9259 -1.75,-2.9375 h -30 c -1.3529,0.01 -2.5241,1.5836 -1.75,2.9375 z m 5.125,1.0625 h 23.25 l -9.375,17.03119 c -0.1632,0.295 -0.2501,0.6317 -0.25,0.9688 v 12.6876 l -4,2.0313 v -14.7189 c 10e-5,-0.3371 -0.087,-0.6738 -0.25,-0.9688 z" />
  </g>
</svg>
