<?xml version="1.0" encoding="utf-8"?>
<!-- Svg Vector Icons : http://www.onlinewebfonts.com/icon -->
<!DOCTYPE svg PUBLIC "-//W3C//DTD SVG 1.1//EN" "http://www.w3.org/Graphics/SVG/1.1/DTD/svg11.dtd">
<svg version="1.1" xmlns="http://www.w3.org/2000/svg" xmlns:xlink="http://www.w3.org/1999/xlink" x="0px" y="0px" viewBox="0 0 1000 1000" enable-background="new 0 0 1000 1000" xml:space="preserve">
<metadata> Svg Vector Icons : http://www.onlinewebfonts.com/icon </metadata>
<g><g transform="translate(0.000000,512.000000) scale(0.100000,-0.100000)"><path d="M1027.8,4093.2c-610.2-610.2-922-935.4-922-960.3c0-57.4,208.5-258.2,267.8-258.2c36.3,0,218.1,172.2,803.4,755.6c652.3,652.3,765.2,755.6,813,755.6c47.8,0,160.7-103.3,813-755.6c594.9-593,767.1-755.6,803.4-755.6c59.3,0,267.8,202.8,267.8,258.2c0,53.6-1832.6,1884.2-1884.2,1884.2C1965.1,5017.1,1630.4,4697.7,1027.8,4093.2z"/><path d="M2711.2,4910c-36.4-24.9-42.1-45.9-42.1-147.3v-118.6l264-264c143.5-143.5,269.7-262.1,277.4-262.1c7.7,0,13.4,168.3,13.4,373c0,468.7,11.5,449.5-273.5,449.5C2803,4940.6,2743.7,4933,2711.2,4910z"/><path d="M1221,3406.4l-732.7-732.7v-702.1c0-679.1,1.9-705.9,38.3-742.2s63.1-38.3,455.3-38.3c346.2,0,422.8,5.7,459.1,30.6c42.1,28.7,42.1,32.5,42.1,554.8v526.1l47.8,45.9c45.9,47.8,45.9,47.8,459.1,47.8c413.2,0,413.2,0,459.1-47.8l47.8-45.9v-526.1c0-522.2,0-526.1,42.1-554.8c36.3-24.9,112.9-30.6,459.1-30.6c392.2,0,418.9,1.9,455.3,38.3s38.3,63.1,38.3,742.2v702.1L2759,3406.4c-459.1,459.1-746,730.7-769,730.7S1680.1,3865.5,1221,3406.4z"/><path d="M6441.4,2218.5c-960.3-960.3-1113.3-1121-1113.3-1168.8c0-44,28.7-86.1,130.1-187.5c214.3-212.3,109-283.1,1180.3,788.1c799.6,799.6,925.9,918.2,975.6,918.2c49.7,0,176-118.6,975.6-918.2c1071.3-1071.2,966-1000.5,1180.3-788.1c101.4,101.4,130.1,143.5,130.1,187.5c0,47.8-151.1,206.6-1115.2,1168.8c-977.5,979.4-1121,1115.2-1170.7,1115.2C7562.4,3333.7,7420.8,3197.9,6441.4,2218.5z"/><path d="M8474.9,3190.3c-40.2-38.3-47.8-65-47.8-166.4v-120.5l330.9-330.9c181.7-179.8,336.7-329,344.3-329c7.7,0,13.4,200.9,13.4,447.6c0,581.5,21,547.1-336.7,547.1C8530.3,3238.1,8518.8,3236.2,8474.9,3190.3z"/><path d="M6672.9,1378.7L5787.2,493l3.8-857l5.7-858.9l45.9-36.3c42.1-34.4,80.4-36.4,556.7-36.4c476.3,0,514.6,1.9,556.7,36.4l45.9,36.3l9.6,652.3c9.6,591.1,13.4,654.2,44,684.8c30.6,30.6,80.4,34.4,558.6,34.4c478.2,0,527.9-3.8,558.6-34.4c30.6-30.6,34.4-93.7,44-684.8l9.6-652.3l45.9-36.3c42.1-34.4,80.3-36.4,556.7-36.4s514.6,1.9,556.7,36.4l45.9,36.3l5.7,858.9l3.8,857l-885.7,885.7c-767.1,765.2-891.4,883.8-941.2,883.8C7564.3,2262.5,7440,2143.9,6672.9,1378.7z"/><path d="M1393.1-708.3L100-1999.5l11.5-74.6c9.6-57.4,40.2-99.5,153-210.4c237.2-233.4,105.2-323.3,1352.5,922C2609.8-369.7,2684.4-300.9,2745.6-300.9s135.8-68.8,1128.6-1061.7c1237.7-1235.7,1115.2-1151.6,1333.3-941.2c143.5,137.7,185.5,204.7,168.3,279.3c-7.6,34.4-407.5,447.6-1277.8,1318c-1143.9,1144-1274,1268.3-1341,1279.8l-72.7,11.5L1393.1-708.3z"/><path d="M3757.5,439.5c-55.5-42.1-74.6-105.2-74.6-237.2V72.2L4075.1-320l392.1-392.1v541.3v541.4l-47.8,45.9c-44,45.9-53.6,47.8-338.6,47.8C3881.9,462.4,3778.6,456.7,3757.5,439.5z"/><path d="M1661-1682L641.4-2701.6v-981.3v-983.3l55.5-55.5l55.5-55.5h587.3h587.3l55.5,55.5l55.5,55.5v711.6c0,799.6,0,803.4,130.1,841.7c45.9,13.4,258.2,19.1,619.8,15.3l550.9-5.7l51.7-53.6l53.6-51.6l9.6-751.8c5.7-411.3,13.4-751.8,15.3-753.7c1.9-1.9,28.7-17.2,61.2-34.4c45.9-23,153-28.7,629.4-28.7h573.9l53.6,45.9l53.6,45.9l5.7,992.8l3.8,990.9L3830.2-1682C2877.6-731.3,2806.8-664.3,2745.6-664.3S2613.6-731.3,1661-1682z"/></g></g>
</svg>